<?xml version="1.0" encoding="utf-8"?>
<!-- Generator: Adobe Illustrator 19.0.0, SVG Export Plug-In . SVG Version: 6.00 Build 0)  -->
<svg version="1.1" id="layer" xmlns="http://www.w3.org/2000/svg" xmlns:xlink="http://www.w3.org/1999/xlink" x="0px" y="0px"
	 viewBox="-153 -46 652 652" style="enable-background:new -153 -46 652 652;" xml:space="preserve">
<style type="text/css">
	.st0{fill:#FFFFFF;}
	.st1{fill:#ADAFB2;}
	.st2{fill:#126B95;}
</style>
<g>
	<path class="st0" d="M-64.1,324.9c-5.9-0.5-8.9-10.3-8.6-22.4c0.4-12.4,2.9-23.8,9-24.8l2.4-0.3c1.3,14.4,6,24.8,13.8,25.6
		l31.4-0.2c-1.5,13.6-6.5,21.4-12,22L-64.1,324.9"/>
	<path class="st1" d="M-64.1,324.9c-5.9-0.5-8.9-10.3-8.6-22.4c0.4-12.4,2.9-23.8,9-24.8l2.4-0.3c1.3,14.4,6,24.8,13.8,25.6
		l31.4-0.2c-1.5,13.6-6.5,21.4-12,22L-64.1,324.9"/>
	<path class="st0" d="M-101.6,281.8c-3.8-0.4-5.8-6.7-5.5-14.5c0.3-8,1.9-15.3,5.8-16l24.7-3.6c0.3-0.1,0.6-0.2,0.9-0.2
		c3.5,0,5.9,7.2,5.4,17.1c-0.5,10.5-4.1,16.6-7.9,17L-101.6,281.8"/>
	<path class="st1" d="M-101.6,281.8c-3.8-0.4-5.8-6.7-5.5-14.5c0.3-8,1.9-15.3,5.8-16l24.7-3.6c0.3-0.1,0.6-0.2,0.9-0.2
		c3.5,0,5.9,7.2,5.4,17.1c-0.5,10.5-4.1,16.6-7.9,17L-101.6,281.8"/>
	<path class="st0" d="M-128.1,248.2c-2.7-0.2-4-4.6-3.9-10.1c0.2-5.6,1.3-10.7,4-11.2l17.3-2.5c0.2-0.1,0.4-0.1,0.6-0.1
		c2.5,0,4.1,5.1,3.7,11.9c-0.4,7.3-2.8,11.6-5.6,11.9L-128.1,248.2"/>
	<path class="st1" d="M-128.1,248.2c-2.7-0.2-4-4.6-3.9-10.1c0.2-5.6,1.3-10.7,4-11.2l17.3-2.5c0.2-0.1,0.4-0.1,0.6-0.1
		c2.5,0,4.1,5.1,3.7,11.9c-0.4,7.3-2.8,11.6-5.6,11.9L-128.1,248.2"/>
	<path class="st0" d="M-45.7,296.4c-6.6-0.6-9.9-11.4-9.5-24.8c0.5-13.7,3.2-26.3,9.9-27.5l42.4-6.1c0.5-0.2,1.1-0.3,1.6-0.3
		c6,0,10,12.4,9.2,29.3c-0.8,18-7,28.5-13.6,29.1L-45.7,296.4"/>
	<path class="st2" d="M-45.7,296.4c-6.6-0.6-9.9-11.4-9.5-24.8c0.5-13.7,3.2-26.3,9.9-27.5l42.4-6.1c0.5-0.2,1.1-0.3,1.6-0.3
		c6,0,10,12.4,9.2,29.3c-0.8,18-7,28.5-13.6,29.1L-45.7,296.4"/>
	<polygon class="st2" points="113.9,275.8 101.4,298.9 86.6,298.9 103.7,269.3 88.4,242 103.7,242.1 113.9,263.1 124.2,242.1 
		139.5,242.1 124.2,269.4 141.2,298.9 126.4,298.9 	"/>
	<path class="st2" d="M166.8,280.8c0,1.1,0,2.2,0.1,3.2c0.1,1,0.4,1.8,0.9,2.6c0.5,0.7,1.3,1.3,2.3,1.7c1.1,0.4,2.6,0.6,4.5,0.6h8.1
		l1.1,1.1v2.8c0,2.3-0.7,3.9-2,4.8c-1.3,0.9-3.7,1.4-7.1,1.4h-3.4c-3.4,0-6.3-0.4-8.6-1c-2.3-0.7-4.2-1.7-5.6-2.9
		c-1.4-1.3-2.5-2.8-3.1-4.6c-0.6-1.8-0.9-3.8-0.9-6l0-32.1l-8,0l0-9.1l8-0.6l3.4-15.3l10.2,0l0,14.8l15.9,0l0,10.2l-15.9,0
		L166.8,280.8z"/>
	<path class="st2" d="M220.8,251.8l-13.6,0l0,47.2l-13.6,0l0-56.3c4.5-0.3,8.1-0.5,10.8-0.7c2.7-0.1,4.9-0.3,6.7-0.3
		c1.8-0.1,3.4-0.1,4.7-0.1c1.4,0,3.1,0,5.1,0L220.8,251.8z"/>
	<path class="st2" d="M232.2,252.4l-1.1-1.1l0-2.8c0-2.3,0.7-3.9,2-4.8c1.3-0.9,3.7-1.4,7.1-1.4l17.1,0c3.4,0,6.3,0.4,8.8,1.2
		c2.4,0.8,4.4,1.9,6,3.3c1.6,1.4,2.7,3.1,3.5,5c0.7,1.9,1.1,4,1.1,6.2l0,40.6c-4.5,0.3-8.4,0.5-11.5,0.7c-3.1,0.2-5.9,0.3-8.2,0.3
		c-2.4,0.1-4.5,0.1-6.4,0.1c-1.8,0-3.7,0-5.7,0c-3.4,0-6.3-0.3-8.6-1c-2.3-0.7-4.2-1.7-5.6-2.9c-1.4-1.3-2.5-2.8-3.1-4.6
		c-0.6-1.8-0.9-3.8-0.9-6l0-7.3c0-2.2,0.3-4.2,0.9-6c0.6-1.8,1.6-3.4,3.1-4.6c1.4-1.2,3.3-2.2,5.6-2.9c2.3-0.7,5.2-1,8.6-1
		c1.7,0,3.1,0,4,0c1,0,2,0,3.1,0.1c1.1,0.1,2.4,0.2,4,0.3c1.6,0.2,4,0.4,7.1,0.7v-2.3c0-1.3-0.1-2.5-0.3-3.7
		c-0.2-1.2-0.6-2.2-1.3-3.1c-0.7-0.9-1.7-1.6-3-2.1c-1.3-0.5-3-0.8-5.1-0.8L232.2,252.4z M262.8,289.4l0-14.8l-15.8,0
		c-1.6,0-2.8,0.2-3.8,0.5c-0.9,0.3-1.6,0.8-2.1,1.4c-0.5,0.6-0.8,1.2-0.9,1.9c-0.1,0.7-0.2,1.5-0.2,2.3l0,2.5c0,0.8,0.1,1.5,0.2,2.3
		c0.1,0.8,0.4,1.4,0.9,2c0.5,0.6,1.2,1,2.1,1.4c0.9,0.3,2.2,0.5,3.8,0.5L262.8,289.4z"/>
	<polygon class="st2" points="329.9,299.1 329.9,268.1 302.6,268.1 302.6,299 288.4,299 288.5,228.6 302.7,228.6 302.6,257.2 
		329.9,257.2 330,228.6 344.2,228.6 344.1,299.1 	"/>
	<path class="st2" d="M374.2,299.1c-3.4,0-6.3-0.3-8.6-1c-2.3-0.7-4.2-1.7-5.6-2.9c-1.4-1.2-2.5-2.8-3.1-4.6c-0.6-1.8-0.9-3.8-0.9-6
		l0-27.7c0-2.2,0.3-4.2,0.9-6c0.6-1.8,1.6-3.3,3.1-4.6c1.4-1.2,3.3-2.2,5.6-2.9c2.3-0.7,5.2-1,8.6-1l13.6,0c3.4,0,6.3,0.3,8.6,1
		c2.3,0.7,4.2,1.7,5.6,2.9c1.4,1.3,2.5,2.8,3.1,4.6c0.6,1.8,0.9,3.8,0.9,6l0,27.7c0,2.2-0.3,4.2-0.9,6c-0.6,1.8-1.6,3.3-3.1,4.6
		c-1.4,1.2-3.3,2.2-5.6,2.9c-2.3,0.7-5.2,1-8.6,1L374.2,299.1z M383.4,288.9c3.4,0,5.8-0.5,7.1-1.6c1.3-1.1,1.9-2.8,1.9-5.2l0-22.7
		c0-2.3-0.6-4.1-1.9-5.2c-1.3-1.1-3.6-1.7-7-1.7l-4.8,0c-3.4,0-5.8,0.5-7.1,1.6c-1.3,1.1-1.9,2.8-1.9,5.2l0,22.7
		c0,2.3,0.6,4.1,1.9,5.2c1.3,1.1,3.6,1.7,7,1.7H383.4z"/>
	<path class="st2" d="M449.8,299.7H447c-1.1,0-2.3,0-3.7-0.1c-1.4-0.1-3-0.2-4.9-0.3c-1.9-0.2-4.1-0.4-6.7-0.7l0,23.3l-13.6,0
		l0.1-79c4.6-0.3,8.4-0.5,11.5-0.7c3.1-0.1,5.9-0.3,8.2-0.3c2.3-0.1,4.4-0.1,6.3-0.1c1.9,0,3.8,0,5.8,0c3.4,0,6.3,0.3,8.6,1
		c2.3,0.7,4.2,1.6,5.6,2.9c1.4,1.2,2.5,2.8,3.1,4.6s0.9,3.8,0.9,6l0,28.9c0,2.2-0.3,4.2-0.9,6c-0.6,1.8-1.6,3.4-3.1,4.6
		c-1.4,1.3-3.3,2.2-5.6,2.9C456.1,299.4,453.2,299.7,449.8,299.7 M454.4,281.5l0-22.3c0-1.1,0-2-0.1-3c0-0.9-0.3-1.7-0.7-2.3
		c-0.4-0.6-1.1-1.1-2-1.5c-1-0.3-2.3-0.5-4.2-0.5l-15.8,0l0,37.5l14.9,0c2,0,3.5-0.2,4.5-0.6c1.1-0.4,1.8-0.9,2.3-1.7
		c0.5-0.7,0.8-1.6,0.9-2.6C454.3,283.7,454.4,282.7,454.4,281.5"/>
	<path class="st2" d="M46.7,241.4c1.4-1.5,4.1-2.2,8-2.2l29.1,0l1.1-1.1v-3.4c0-2.3-0.7-3.9-2-4.8c-1.3-0.9-3.7-1.4-7.1-1.4l-27.3,0
		c-3.4,0-6.3,0.3-8.6,1c-2.3,0.7-4.2,1.6-5.6,2.9c-1.4,1.2-2.5,2.8-3.1,4.6c-0.6,1.8-0.9,3.8-0.9,6l0,9c0,0.4,0,0.7,0.1,1.1v19.4
		c0,0.4-0.1,0.8-0.1,1.3l0,10.7c0,2.2,0.3,4.2,0.9,6c0.6,1.8,1.6,3.4,3.1,4.6c1.4,1.2,3.3,2.2,5.6,2.9c2.3,0.7,5.2,1,8.6,1l27.3,0
		c3.4,0,5.8-0.5,7.1-1.4c1.3-0.9,2-2.6,2-4.8v-3.4l-1.1-1.1l-29.1,0c-3.9,0-6.6-0.7-8-2.2c-1.4-1.5-2.1-3.4-2.1-5.7l0-4.3
		c0-2.2,0.6-4.1,1.9-5.6c1.3-1.6,3.6-2.3,7.1-2.3l18.9,0l0-10.1l-18.9,0c-3.5,0-5.9-0.8-7.1-2.3c-1.3-1.6-1.9-3.4-1.9-5.6l0-2.6
		C44.6,244.8,45.3,242.9,46.7,241.4"/>
</g>
</svg>
